<?xml version="1.0" encoding="UTF-8"?> <svg xmlns="http://www.w3.org/2000/svg" width="34" height="43" viewBox="0 0 34 43" fill="none"> <path fill-rule="evenodd" clip-rule="evenodd" d="M17 12.75C15.2426 12.75 13.8125 14.1801 13.8125 15.9375C13.8125 17.6949 15.2426 19.125 17 19.125C18.7574 19.125 20.1875 17.6949 20.1875 15.9375C20.1875 14.1801 18.7574 12.75 17 12.75ZM17 23.375C12.8988 23.375 9.5625 20.0387 9.5625 15.9375C9.5625 11.8363 12.8988 8.5 17 8.5C21.1012 8.5 24.4375 11.8363 24.4375 15.9375C24.4375 20.0387 21.1012 23.375 17 23.375ZM17 0C7.62663 0 0 7.55225 0 16.8364C0 28.4686 14.9791 41.4418 15.6166 41.9879C16.0161 42.33 16.507 42.5 17 42.5C17.493 42.5 17.9839 42.33 18.3834 41.9879C19.0209 41.4418 34 28.4686 34 16.8364C34 7.55225 26.3734 0 17 0Z" fill="#AFCB64"></path> </svg> 