<?xml version="1.0" encoding="UTF-8"?> <svg xmlns="http://www.w3.org/2000/svg" width="94" height="94" viewBox="0 0 94 94" fill="none"> <path d="M62.5 39.5V49L67.5 55L72 60.5V67.5L69.5 73.5L56 70L51 59V53.5V46L46 36.5L44 31L47.5 28L56 31L62.5 39.5Z" fill="#AFCB64"></path> <path d="M46.9794 24.4675C47.5073 24.4355 47.919 23.9981 47.919 23.4693V19.7987C47.919 17.0633 45.7417 14.8102 43.0124 14.8102C40.2831 14.8102 38.1059 17.0633 38.1059 19.7987V25.8433C38.1059 26.1996 38.2954 26.529 38.6035 26.7079C38.9116 26.8869 39.2917 26.8885 39.6012 26.712C42.0732 25.3024 44.5697 24.6134 46.9794 24.4675ZM32.2927 35.6722C32.2927 35.3491 32.1366 35.0459 31.8737 34.8582C31.6108 34.6706 31.2733 34.6215 30.9678 34.7264C26.2271 36.3551 22.4567 40.7393 22.4567 46.9886C22.4567 52.7224 25.7408 56.3386 27.9322 57.8349C29.1988 58.6998 30.2698 60.2422 30.2698 62.1808V66.931L30.2698 72.4647C30.2698 72.6543 30.3237 72.84 30.4253 73.0002L33.6062 78.017C33.8987 78.4783 34.5073 78.6196 34.9731 78.3342L39.6053 75.4966C39.9021 75.3148 40.083 74.9919 40.083 74.6439V62.1808C40.083 60.2776 41.1116 58.7227 42.3834 57.8349C44.1342 56.6128 47.8961 53.2709 47.8961 46.9886C47.8961 44.5653 47.0808 41.2449 45.0867 38.5982C43.8125 36.907 41.9973 35.4019 39.3971 34.6102C39.094 34.5179 38.7651 34.5747 38.5106 34.7633C38.256 34.9519 38.1059 35.25 38.1059 35.5668V41.7352C38.1059 43.4054 36.7851 44.7237 35.1993 44.7237C33.6135 44.7237 32.2927 43.4054 32.2927 41.7352V35.6722ZM31.4945 28.4249C31.9592 28.3291 32.2927 27.92 32.2927 27.4454V19.7987C32.2927 13.723 37.1116 8.83325 43.0124 8.83325C48.9133 8.83325 53.7321 13.723 53.7321 19.7987V24.7492C53.7321 25.1606 53.9841 25.5301 54.3671 25.6802C57.6358 26.9618 60.3281 29.0559 62.0905 31.106C67.5191 37.4207 67.0993 44.2402 66.4095 47.6289C66.3478 47.9317 66.4296 48.2459 66.6311 48.4803L74.2573 57.3513L74.3386 57.4458L74.4118 57.547L76.3537 60.2314C77.2864 61.5207 77.5573 63.1936 77.0767 64.7254L74.4277 73.1681C73.6797 75.5518 71.3344 76.9792 68.957 76.5492L58.8961 74.7294C57.6879 74.5108 56.6009 73.8308 55.8584 72.82L48.0721 62.2207C47.9103 62.0005 47.6655 61.856 47.3945 61.821C47.1235 61.7859 46.85 61.8632 46.6375 62.035C46.5171 62.1323 46.4 62.2246 46.2865 62.3118C46.0404 62.5011 45.8961 62.794 45.8961 63.1045V74.9079V75.773C45.8961 77.533 44.9915 79.1543 43.5288 80.0504L36.3294 84.4606C34.094 85.83 31.1908 85.1517 29.7624 82.8988L25.242 75.7695C24.7301 74.9622 24.4567 74.0191 24.4567 73.0538V66.931L24.4567 63.1367C24.4567 62.8248 24.3112 62.5309 24.0634 62.3417C20.8173 59.8644 16.6436 54.7486 16.6436 46.9886C16.6436 36.7035 23.6629 30.038 31.4945 28.4249ZM49.8607 30.5957C49.8004 30.5739 49.7382 30.5579 49.6748 30.5481C49.0477 30.4501 48.3944 30.4009 47.7191 30.4165C47.3047 30.4261 46.9391 30.6903 46.8001 31.0808C46.6611 31.4714 46.7774 31.9071 47.0925 32.1764C48.0678 33.0099 48.9302 33.94 49.6822 34.9381C52.5709 38.7722 53.7092 43.4286 53.7092 46.9886C53.7092 50.7005 52.7917 53.704 51.5431 56.0797C51.3652 56.4183 51.3959 56.8287 51.6224 57.1369L60.0344 68.5881C60.1859 68.7943 60.4106 68.9346 60.6624 68.9801L68.2837 70.3587C68.7797 70.4484 69.265 70.155 69.4159 69.6741L71.2393 63.8627C71.3338 63.5614 71.2805 63.2331 71.0954 62.9772L69.8452 61.249C69.8288 61.2263 69.8115 61.2044 69.7933 61.1832L61.6787 51.7442C60.4548 50.3205 60.2173 48.457 60.603 46.9196C61.1262 44.834 61.799 39.7915 57.735 35.0642C56.2687 33.3586 53.7663 31.5505 50.831 30.7884C50.7695 30.7724 50.7065 30.7623 50.643 30.7583C50.3697 30.741 50.1074 30.685 49.8607 30.5957Z" fill="#1D2B3C" stroke="white" stroke-width="2" stroke-linecap="round" stroke-linejoin="round"></path> </svg> 