<?xml version="1.0" encoding="UTF-8"?> <svg xmlns="http://www.w3.org/2000/svg" width="91" height="68" viewBox="0 0 91 68" fill="none"> <path d="M60.5852 36.5V36.7422H30.4133L30.4133 36.5L30.4133 36.4986C30.4034 33.0296 29.1619 29.6769 26.9102 27.038C24.7508 24.5075 21.7969 22.7912 18.5383 22.1648V15.7197C18.5479 13.2961 19.5149 10.9744 21.2286 9.26063C22.9424 7.54684 25.2641 6.57984 27.6877 6.57031H63.3108C65.7345 6.57984 68.0561 7.54684 69.7699 9.26063C71.4839 10.9746 72.4509 13.2967 72.4602 15.7207V22.1648C69.2017 22.7912 66.2478 24.5075 64.0884 27.038C61.8366 29.6769 60.5951 33.0296 60.5852 36.4986V36.5ZM77.9133 22.1655V15.7188C77.9133 11.8462 76.375 8.13221 73.6366 5.39389C70.8983 2.65556 67.1843 1.11719 63.3118 1.11719H27.6868C23.8142 1.11719 20.1002 2.65556 17.3619 5.39389C14.6236 8.13221 13.0852 11.8462 13.0852 15.7188V22.1655C9.83302 22.7962 6.88715 24.5154 4.73693 27.0466C2.4947 29.6861 1.26367 33.0367 1.26367 36.5C1.26367 39.9633 2.4947 43.3139 4.73693 45.9534C6.88715 48.4846 9.83302 50.2038 13.0852 50.8345V63.2188C13.0852 64.7292 13.6852 66.1779 14.7533 67.2459C15.8214 68.314 17.27 68.9141 18.7805 68.9141H72.218C73.7285 68.9141 75.1771 68.314 76.2452 67.2459C77.3133 66.1779 77.9133 64.7292 77.9133 63.2188V50.8345C81.1655 50.2038 84.1114 48.4846 86.2616 45.9534C88.5038 43.3139 89.7349 39.9633 89.7349 36.5C89.7349 33.0367 88.5038 29.6861 86.2616 27.0466C84.1114 24.5154 81.1655 22.7962 77.9133 22.1655ZM75.2953 45.6484H75.1868C74.4636 45.6484 73.7701 45.9357 73.2588 46.447C72.7475 46.9584 72.4602 47.6519 72.4602 48.375V63.2188C72.4602 63.283 72.4347 63.3446 72.3893 63.39C72.3439 63.4354 72.2823 63.4609 72.218 63.4609H18.7805C18.7163 63.4609 18.6547 63.4354 18.6093 63.39C18.5638 63.3446 18.5383 63.283 18.5383 63.2188V48.375C18.5383 47.6519 18.2511 46.9584 17.7397 46.447L17.3862 46.8006L17.7397 46.447C17.2284 45.9357 16.5349 45.6484 15.8118 45.6484H15.7033C13.8995 45.627 12.1424 45.0729 10.6527 44.0556C9.16218 43.0378 8.00605 41.6018 7.32978 39.9285C6.65352 38.2551 6.48734 36.419 6.85217 34.6514C7.21699 32.8838 8.09651 31.2636 9.38005 29.9947C10.6636 28.7258 12.2938 27.8649 14.0655 27.5204C15.8371 27.1759 17.6711 27.3631 19.3367 28.0585C21.0022 28.754 22.4248 29.9265 23.4254 31.4286C24.4261 32.9307 24.9601 34.6952 24.9602 36.5V51.3438C24.9602 52.0669 25.2475 52.7604 25.7588 53.2717C26.2701 53.7831 26.9636 54.0703 27.6868 54.0703C28.4099 54.0703 29.1034 53.7831 29.6147 53.2717C30.1261 52.7604 30.4133 52.0669 30.4133 51.3438V42.1953H60.5852V51.3438C60.5852 52.0669 60.8725 52.7604 61.3838 53.2717C61.8951 53.7831 62.5886 54.0703 63.3118 54.0703C64.0349 54.0703 64.7284 53.7831 65.2397 53.2717C65.7511 52.7604 66.0383 52.0669 66.0383 51.3438V36.5C66.0385 34.6952 66.5724 32.9307 67.5731 31.4286C68.5737 29.9265 69.9964 28.754 71.6619 28.0585C73.3274 27.3631 75.1614 27.1759 76.9331 27.5204C78.7048 27.8649 80.3349 28.7258 81.6185 29.9947C82.902 31.2636 83.7815 32.8838 84.1464 34.6514C84.5112 36.419 84.345 38.2551 83.6687 39.9285C82.9925 41.6018 81.8363 43.0378 80.3458 44.0556C78.8562 45.0729 77.099 45.627 75.2953 45.6484Z" fill="#AFCB64" stroke="#AFCB64"></path> </svg> 