<?xml version="1.0" encoding="UTF-8"?> <svg xmlns="http://www.w3.org/2000/svg" width="42" height="36" viewBox="0 0 42 36" fill="none"> <path fill-rule="evenodd" clip-rule="evenodd" d="M10.0376 1.21216C17.3313 0.556843 24.6687 0.556843 31.9624 1.21216L35.1078 1.49476C38.2428 1.77644 40.7759 4.18312 41.2312 7.31272C42.2563 14.3582 42.2563 21.5161 41.2312 28.5616C40.7759 31.6912 38.2428 34.0979 35.1078 34.3795L31.9624 34.6621C24.6687 35.3175 17.3313 35.3175 10.0376 34.6621L6.89222 34.3795C3.75717 34.0979 1.22412 31.6912 0.768793 28.5616C-0.256264 21.5161 -0.256264 14.3582 0.768793 7.31272C1.22412 4.18312 3.75717 1.77644 6.89222 1.49476L10.0376 1.21216ZM8.26291 7.18797C7.7811 6.92728 7.19838 6.9403 6.72859 7.22227C6.25879 7.50424 5.97111 8.01363 5.97111 8.56351V28.3523C5.97111 29.2151 6.66718 29.9146 7.52582 29.9146C8.38446 29.9146 9.08053 29.2151 9.08053 28.3523V11.1791L20.2629 17.2297C20.723 17.4786 21.2769 17.4786 21.7371 17.2297L32.9194 11.1791V28.3523C32.9194 29.2151 33.6155 29.9146 34.4741 29.9146C35.3328 29.9146 36.0288 29.2151 36.0288 28.3523V8.56351C36.0288 8.01363 35.7412 7.50424 35.2714 7.22227C34.8016 6.9403 34.2189 6.92728 33.737 7.18797L21 14.0798L8.26291 7.18797Z" fill="#AFCB64"></path> </svg> 