<?xml version="1.0" encoding="UTF-8"?> <svg xmlns="http://www.w3.org/2000/svg" width="37" height="37" viewBox="0 0 37 37" fill="none"> <path fill-rule="evenodd" clip-rule="evenodd" d="M28.49 37C12.7798 37 0 24.2202 0 8.51C0 3.81655 3.8184 0 8.51 0C8.991 0 9.46645 0.0407 9.9271 0.12025C10.3767 0.1924 10.8299 0.3071 11.2684 0.4588C11.8715 0.66785 12.3229 1.1729 12.4653 1.7945L14.9998 12.8279C15.1385 13.4347 14.9628 14.0711 14.5318 14.5225C14.2783 14.7852 14.2727 14.7908 11.9788 15.9914C13.8362 20.0133 17.0644 23.2305 21.0068 25.025C22.2074 22.7291 22.2148 22.7217 22.4775 22.4701C22.9307 22.0372 23.569 21.8688 24.174 22.0021L35.2074 24.5347C35.8271 24.6772 36.3322 25.1285 36.5412 25.7298C36.6929 26.1664 36.8058 26.6178 36.8816 27.0821C36.9593 27.5391 37 28.0127 37 28.49C37 33.1834 33.1834 37 28.49 37Z" fill="#AFCB64"></path> </svg> 