<?xml version="1.0" encoding="UTF-8"?> <svg xmlns="http://www.w3.org/2000/svg" width="77" height="77" viewBox="0 0 77 77" fill="none"> <path d="M25.117 28.8748V29.4248H25.667L53.9758 29.4248C57.5286 29.4248 60.4087 32.3049 60.4087 35.8577V48.1248C60.4087 60.2245 50.6 70.0332 38.5003 70.0332C26.4007 70.0332 16.592 60.2245 16.592 48.1248V35.8577C16.592 33.5865 17.7686 31.5898 19.548 30.4443L19.8003 30.2819V29.9819V25.6665C19.8003 15.3388 28.1726 6.9665 38.5003 6.9665C43.678 6.9665 48.3643 8.92021 51.7527 11.8458C54.9835 14.6354 56.9999 18.2752 57.1862 21.9082L51.861 21.9082C51.6611 19.4774 50.1539 17.1486 47.9123 15.4067C45.4934 13.527 42.1664 12.2832 38.5003 12.2832C31.1089 12.2832 25.117 18.2751 25.117 25.6665V28.8748ZM23.0248 34.7415C22.4084 34.7415 21.9087 35.2412 21.9087 35.8577L21.9087 48.1248C21.9087 57.2882 29.337 64.7165 38.5003 64.7165C47.6637 64.7165 55.092 57.2882 55.092 48.1248V35.8577C55.092 35.2412 54.5923 34.7415 53.9758 34.7415H25.667H23.0248ZM38.5003 42.2582C41.7404 42.2582 44.367 44.8848 44.367 48.1248C44.367 51.3649 41.7404 53.9915 38.5003 53.9915C35.2603 53.9915 32.6337 51.3649 32.6337 48.1248C32.6337 44.8848 35.2603 42.2582 38.5003 42.2582Z" fill="#1D2B3C" stroke="white" stroke-width="1.1"></path> <circle cx="38.5" cy="48.5" r="6.5" fill="#AFCB64"></circle> </svg> 