<?xml version="1.0" encoding="UTF-8"?> <svg xmlns="http://www.w3.org/2000/svg" width="56" height="56" viewBox="0 0 56 56" fill="none"> <path fill-rule="evenodd" clip-rule="evenodd" d="M4.66699 9.33342C4.66699 6.75609 6.75633 4.66675 9.33366 4.66675H46.667C49.2443 4.66675 51.3337 6.75609 51.3337 9.33342V16.3334C51.3337 18.0607 50.3952 19.5689 49.0003 20.3758V21.0001V44.3334C49.0003 48.1994 45.8663 51.3334 42.0003 51.3334H14.0003C10.1343 51.3334 7.00033 48.1994 7.00033 44.3334V21.0001V20.3758C5.60546 19.5689 4.66699 18.0607 4.66699 16.3334V9.33342ZM16.3337 21.0001H39.667H44.3337V25.6667V44.3334C44.3337 45.6221 43.289 46.6668 42.0003 46.6668H14.0003C12.7117 46.6668 11.667 45.6221 11.667 44.3334V25.6667V21.0001H16.3337ZM46.667 14.0001V16.3334H44.3337H42.0003H14.0003H11.667H9.33366V14.0001V11.6667V9.33342H14.0003H42.0003H46.667V11.6667V14.0001ZM21.0003 25.6667C19.7117 25.6667 18.667 26.7114 18.667 28.0001C18.667 29.2887 19.7117 30.3334 21.0003 30.3334H35.0003C36.289 30.3334 37.3337 29.2887 37.3337 28.0001C37.3337 26.7114 36.289 25.6667 35.0003 25.6667H21.0003Z" fill="#AFCB64"></path> </svg> 