<?xml version="1.0" encoding="UTF-8"?> <svg xmlns="http://www.w3.org/2000/svg" width="83" height="83" viewBox="0 0 83 83" fill="none"> <path d="M24.2083 14.3334H24.7083V13.8334V10.3751C24.7083 8.74124 26.0328 7.41675 27.6667 7.41675C29.3005 7.41675 30.625 8.74124 30.625 10.3751V13.8334V14.3334H31.125H51.875H52.375V13.8334V10.3751C52.375 8.74124 53.6995 7.41675 55.3333 7.41675C56.9672 7.41675 58.2917 8.74124 58.2917 10.3751V13.8334V14.3334H58.7917H62.25C67.7038 14.3334 72.125 18.7546 72.125 24.2084V31.1251V65.7084C72.125 71.1622 67.7038 75.5834 62.25 75.5834H20.75C15.2962 75.5834 10.875 71.1622 10.875 65.7084V31.1251V24.2084C10.875 18.7546 15.2962 14.3334 20.75 14.3334H24.2083ZM16.7917 27.6667V28.1667H17.2917H65.7083H66.2083V27.6667V24.2084C66.2083 22.0223 64.4361 20.2501 62.25 20.2501H55.3333H27.6667H20.75C18.5639 20.2501 16.7917 22.0223 16.7917 24.2084V27.6667ZM17.2917 34.0834H16.7917V34.5834V65.7084C16.7917 67.8945 18.5639 69.6668 20.75 69.6668H62.25C64.4361 69.6668 66.2083 67.8945 66.2083 65.7084V34.5834V34.0834H65.7083L17.2917 34.0834ZM24.7083 50.1459C24.7083 48.5121 26.0328 47.1876 27.6667 47.1876H55.3333C56.9672 47.1876 58.2917 48.5121 58.2917 50.1459V53.6043C58.2917 55.2381 56.9672 56.5626 55.3333 56.5626H27.6667C26.0328 56.5626 24.7083 55.2381 24.7083 53.6043V50.1459Z" fill="#1D2B3C" stroke="white"></path> <rect x="25" y="47" width="33" height="9" rx="2" fill="#AFCB64"></rect> </svg> 