<?xml version="1.0" encoding="UTF-8"?> <svg xmlns="http://www.w3.org/2000/svg" width="95" height="95" viewBox="0 0 95 95" fill="none"> <path d="M15.8346 75.8773H16.5036V75.2083V19.7917C16.5036 15.7889 19.7485 12.544 23.7513 12.544H51.4596C55.4624 12.544 58.7073 15.7889 58.7073 19.7917V35.625V36.294H59.3763H71.2513C75.2541 36.294 78.499 39.5389 78.499 43.5417V75.2083V75.8773H79.168H83.1263C84.9429 75.8773 86.4156 77.35 86.4156 79.1667C86.4156 80.9833 84.9429 82.456 83.1263 82.456H11.8763C10.0597 82.456 8.58698 80.9833 8.58698 79.1667C8.58698 77.35 10.0597 75.8773 11.8763 75.8773H15.8346ZM59.3763 42.8727H58.7073V43.5417V75.2083V75.8773H59.3763H71.2513H71.9203V75.2083V43.5417V42.8727H71.2513H59.3763ZM51.4596 75.8773H52.1287V75.2083V19.7917V19.1227H51.4596H23.7513H23.0823V19.7917V75.2083V75.8773H23.7513H51.4596ZM32.337 34.956V28.3773H42.874V34.956H32.337ZM32.337 44.2107H42.874V50.7893H32.337V44.2107ZM32.337 66.6227V60.044H42.874V66.6227H32.337Z" fill="#09244B" stroke="white" stroke-width="1.33803"></path> <rect x="58" y="40" width="15" height="37" rx="1" fill="#AFCB64"></rect> </svg> 