<?xml version="1.0" encoding="UTF-8"?> <svg xmlns="http://www.w3.org/2000/svg" width="86" height="86" viewBox="0 0 86 86" fill="none"> <path d="M42.9564 21.9709C43.2203 21.9549 43.4262 21.7362 43.4262 21.4718V18.1136C43.4262 15.832 41.6119 13.9646 39.3521 13.9646C37.0923 13.9646 35.278 15.832 35.278 18.1136V23.6437C35.278 23.8219 35.3728 23.9866 35.5268 24.0761C35.6809 24.1656 35.8709 24.1663 36.0257 24.0781C38.3428 22.7569 40.6886 22.1082 42.9564 21.9709ZM29.1298 32.6361C29.1298 32.4746 29.0518 32.323 28.9203 32.2292C28.7888 32.1353 28.6201 32.1108 28.4674 32.1633C24.2876 33.5992 20.9607 37.4597 20.9607 42.9895C20.9607 48.0637 23.8658 51.2567 25.7893 52.5701C27.04 53.4241 28.1089 54.9542 28.1089 56.8887V61.2346L28.1089 66.2974C28.1089 66.3922 28.1358 66.4851 28.1866 66.5651L31.0968 71.155C31.2431 71.3856 31.5474 71.4563 31.7803 71.3136L36.0182 68.7175C36.1666 68.6266 36.2571 68.4651 36.2571 68.2911V56.8887C36.2571 54.9916 37.2821 53.45 38.5392 52.5725C40.0844 51.4939 43.4053 48.5464 43.4053 42.9895C43.4053 40.8488 42.681 37.9022 40.9184 35.5628C39.7977 34.0754 38.207 32.7567 35.9236 32.0615C35.7721 32.0153 35.6077 32.0437 35.4804 32.138C35.3531 32.2323 35.278 32.3814 35.278 32.5398V38.1832C35.278 39.9322 33.892 41.3322 32.2039 41.3322C30.5159 41.3322 29.1298 39.9322 29.1298 38.1832V32.6361ZM28.7307 25.5993C28.9631 25.5514 29.1298 25.3468 29.1298 25.1096V18.1136C29.1298 12.334 33.7162 7.6665 39.3521 7.6665C44.988 7.6665 49.5744 12.334 49.5744 18.1136V22.6428C49.5744 22.8485 49.7004 23.0332 49.8919 23.1083C52.9497 24.3072 55.4676 26.2648 57.1211 28.1881C62.2039 34.1005 61.8092 40.4909 61.1645 43.658C61.1336 43.8094 61.1745 43.9666 61.2753 44.0837L68.2525 52.1997L68.3382 52.2994L68.4153 52.4061L70.192 54.8621C71.1225 56.1484 71.3918 57.8153 70.9132 59.341L68.4896 67.0651C67.7445 69.4399 65.4014 70.8743 63.0148 70.4426L53.8101 68.7776C52.5988 68.5585 51.5117 67.8772 50.7704 66.8681L43.6468 57.1708C43.5659 57.0607 43.4435 56.9885 43.308 56.971C43.1725 56.9534 43.0358 56.9921 42.9295 57.078C42.8167 57.1692 42.7069 57.2557 42.6005 57.3375C42.4774 57.4321 42.4053 57.5786 42.4053 57.7339V68.5327V69.3242C42.4053 71.0761 41.5049 72.6947 40.0412 73.5913L33.4546 77.6261C31.2131 78.9992 28.3057 78.3152 26.8793 76.0657L22.7436 69.5431C22.233 68.7377 21.9607 67.7977 21.9607 66.8364L21.9607 61.2346V57.7632C21.9607 57.6073 21.888 57.4603 21.764 57.3658C18.7205 55.043 14.8125 50.2511 14.8125 42.9895C14.8125 33.3613 21.3947 27.1103 28.7307 25.5993ZM45.4764 28.3819C45.4462 28.371 45.4151 28.363 45.3835 28.3581C44.8322 28.2719 44.2592 28.2289 43.6678 28.2426C43.4606 28.2473 43.2778 28.3795 43.2083 28.5747C43.1388 28.77 43.197 28.9879 43.3545 29.1225C44.2709 29.9056 45.0804 30.7789 45.7856 31.7149C48.4905 35.305 49.5534 39.6563 49.5534 42.9895C49.5534 46.457 48.6956 49.2708 47.524 51.4999C47.4351 51.6692 47.4505 51.8744 47.5637 52.0285L55.2598 62.5051C55.3355 62.6082 55.4479 62.6784 55.5738 62.7011L62.5465 63.9624C62.7945 64.0072 63.0371 63.8605 63.1126 63.6201L64.7808 58.3033C64.8281 58.1526 64.8014 57.9885 64.7089 57.8605L63.5651 56.2794C63.5569 56.2681 63.5482 56.2571 63.5391 56.2465L56.1151 47.6108C54.8923 46.1884 54.6637 44.3383 55.0432 42.8254C55.5061 40.9801 56.0999 36.5297 52.5071 32.3504C51.2142 30.8466 48.9955 29.2432 46.4011 28.5696C46.3703 28.5616 46.3388 28.5566 46.307 28.5545C46.0171 28.5362 45.7385 28.4767 45.4764 28.3819Z" fill="#AFCB64" stroke="white" stroke-linecap="round" stroke-linejoin="round"></path> </svg> 