<?xml version="1.0" encoding="UTF-8"?> <svg xmlns="http://www.w3.org/2000/svg" width="49" height="62" viewBox="0 0 49 62" fill="none"> <path d="M27.3959 17.3808C27.1961 17.4514 27.0625 17.6403 27.0625 17.8522V43.591C27.0625 43.7712 27.1594 43.9374 27.3162 44.0261C27.4729 44.1149 27.6653 44.1125 27.8197 44.0198L37.0072 38.5073C37.1579 38.4169 37.25 38.2542 37.25 38.0785V33.1647C37.25 32.9528 37.1164 32.7639 36.9166 32.6933C33.5417 31.5004 31.125 28.2818 31.125 24.5C31.125 19.702 35.0145 15.8125 39.8125 15.8125C44.6105 15.8125 48.5 19.702 48.5 24.5C48.5 28.2818 46.0833 31.5004 42.7084 32.6933C42.5086 32.7639 42.375 32.9528 42.375 33.1647V39.8125C42.375 40.7126 41.9027 41.5467 41.1309 42.0098L27.3053 50.3052C27.1547 50.3956 27.0625 50.5583 27.0625 50.734V52.0121H27.0624L27.0626 52.0208C27.0631 52.0505 27.0631 52.0802 27.0626 52.1099H27.0625V52.1187V58.1875C27.0625 59.6027 25.9152 60.75 24.5 60.75C23.0848 60.75 21.9375 59.6027 21.9375 58.1875V53.7965C21.9375 53.6208 21.8454 53.4581 21.6947 53.3677L7.8691 45.0723C7.09727 44.6092 6.625 43.7751 6.625 42.875V39.2897C6.625 39.0778 6.49142 38.8889 6.29162 38.8183C2.91675 37.6254 0.5 34.4068 0.5 30.625C0.5 25.827 4.38953 21.9375 9.1875 21.9375C13.9855 21.9375 17.875 25.827 17.875 30.625C17.875 34.4068 15.4583 37.6254 12.0834 38.8183C11.8836 38.8889 11.75 39.0778 11.75 39.2897V41.141C11.75 41.3167 11.8421 41.4794 11.9928 41.5698L21.1803 47.0823C21.3347 47.175 21.5271 47.1774 21.6838 47.0886C21.8406 46.9999 21.9375 46.8337 21.9375 46.6535V17.8522C21.9375 17.6403 21.8039 17.4514 21.6041 17.3808C18.2292 16.1879 15.8125 12.9693 15.8125 9.1875C15.8125 4.38953 19.702 0.5 24.5 0.5C29.298 0.5 33.1875 4.38953 33.1875 9.1875C33.1875 12.9693 30.7708 16.1879 27.3959 17.3808ZM20.9375 9.1875C20.9375 11.155 22.5325 12.75 24.5 12.75C26.4675 12.75 28.0625 11.155 28.0625 9.1875C28.0625 7.21999 26.4675 5.625 24.5 5.625C22.5325 5.625 20.9375 7.21999 20.9375 9.1875ZM9.1875 34.1875C11.155 34.1875 12.75 32.5925 12.75 30.625C12.75 28.6575 11.155 27.0625 9.1875 27.0625C7.21999 27.0625 5.625 28.6575 5.625 30.625C5.625 32.5925 7.21999 34.1875 9.1875 34.1875ZM39.8125 28.0625C41.78 28.0625 43.375 26.4675 43.375 24.5C43.375 22.5325 41.78 20.9375 39.8125 20.9375C37.845 20.9375 36.25 22.5325 36.25 24.5C36.25 26.4675 37.845 28.0625 39.8125 28.0625Z" fill="#AFCB64" stroke="white" stroke-linecap="round" stroke-linejoin="round"></path> </svg> 