<?xml version="1.0" encoding="UTF-8"?> <svg xmlns="http://www.w3.org/2000/svg" width="59" height="75" viewBox="0 0 59 75" fill="none"> <path d="M24 45.5C24 42.4624 26.4624 40 29.5 40C32.5376 40 35 42.4624 35 45.5C35 48.5376 32.5376 51 29.5 51C26.4624 51 24 48.5376 24 45.5Z" fill="#9CCF1B"></path> <path d="M3 29.5H56V69.1429C56 70.2474 55.1046 71.1429 54 71.1429H5C3.89543 71.1429 3 70.2474 3 69.1429V29.5Z" stroke="#AFCB64" stroke-width="6" stroke-linejoin="round"></path> <path d="M14.3574 29.5V18.1429C14.3574 9.77969 21.1371 3 29.5003 3C37.8634 3 44.6431 9.77969 44.6431 18.1429V29.5" stroke="#AFCB64" stroke-width="6" stroke-linecap="round"></path> <rect x="27" y="46" width="5" height="15" fill="#A3D004"></rect> </svg> 