<?xml version="1.0" encoding="UTF-8"?> <svg xmlns="http://www.w3.org/2000/svg" width="143" height="60" viewBox="0 0 143 60" fill="none"> <path d="M15.7576 8.60522C16.5481 7.84889 17.7124 7.52582 18.4583 7.32003L18.6196 7.2749L18.6317 7.26896L45.1633 0.160054C45.5669 0.0516687 45.9603 0 46.3357 0C47.2568 0 48.093 0.29665 48.768 0.828184C49.4316 1.35051 49.921 2.08872 50.16 2.98134C50.2664 3.37717 50.3228 3.79765 50.3228 4.23476V36.8977C50.3228 38.1817 49.845 39.4639 49.0753 40.4946C48.2988 41.5354 47.2028 42.3464 45.9758 42.6751L45.1841 42.8874V55.1329C45.1841 55.57 45.1277 55.9905 45.0214 56.3863C44.7823 57.2792 44.293 58.0174 43.6293 58.5398C42.954 59.071 42.1178 59.3677 41.197 59.3677C40.8217 59.3677 40.4282 59.3154 40.0247 59.2076L18.2136 53.3655L18.2015 53.3595L18.058 53.32C16.9596 53.018 14.9062 52.4538 14.9062 50.1198C14.9062 47.7811 17.2414 47.1337 18.4595 46.7967L18.6199 46.7519L18.632 46.7459L42.032 40.4741V22.4702C42.032 21.8814 41.7951 21.2688 41.4129 20.7569C41.0384 20.2547 40.5452 19.8732 40.0247 19.7339L18.2136 13.8897L18.2015 13.8837L18.058 13.8442C16.9596 13.5423 14.9062 12.9778 14.9062 10.6438C14.9062 9.73718 15.2572 9.08479 15.7576 8.60611V8.60522ZM45.1838 39.6281C45.6966 39.4844 46.1816 39.1061 46.5513 38.6108C46.9334 38.0989 47.171 37.486 47.171 36.8974V4.23446C47.171 4.06698 47.1529 3.9197 47.119 3.79379C47.0608 3.57643 46.9566 3.40806 46.8224 3.30264C46.6994 3.20613 46.5326 3.15209 46.3354 3.15209C46.2199 3.15209 46.0987 3.16812 45.9755 3.20108L18.058 10.6432L40.8365 16.6926C42.0638 17.021 43.1598 17.8319 43.9363 18.8724C44.706 19.9034 45.1835 21.1857 45.1835 22.4697V39.6284L45.1838 39.6281ZM42.0317 43.7322C34.078 45.8637 26.0539 48.2188 18.0583 50.1192L40.8368 56.166C40.9606 56.1989 41.0815 56.2153 41.1967 56.2153C41.3939 56.2153 41.5611 56.1612 41.6837 56.0647C41.8176 55.959 41.9222 55.7912 41.9804 55.5736C42.0139 55.4477 42.032 55.3001 42.032 55.1326V43.7322H42.0317Z" fill="#9CCF1B"></path> <path d="M57.8848 39.4789V23.9578H60.4207V24.7883L60.377 25.5755H60.4207C60.785 24.9778 61.2842 24.5151 61.9182 24.1873C62.5522 23.8595 63.2479 23.6956 64.006 23.6956C65.5068 23.6956 66.7059 24.2348 67.6021 25.3133C68.4982 26.3918 68.9463 27.7979 68.9463 29.5323C68.9463 31.2814 68.4691 32.6913 67.5145 33.7623C66.5598 34.8334 65.3393 35.3691 63.8528 35.3691C62.5266 35.3691 61.4555 34.8444 60.6392 33.7953H60.5956C60.6392 34.0575 60.6609 34.3782 60.6609 34.7571V39.4792H57.8848V39.4789ZM60.5736 29.5977C60.5736 30.5304 60.8213 31.3354 61.3169 32.0133C61.8122 32.691 62.4901 33.0298 63.3498 33.0298C64.1515 33.0298 64.8182 32.7204 65.3503 32.1006C65.8821 31.4815 66.1482 30.6397 66.1482 29.5757C66.1482 28.5263 65.8931 27.6812 65.383 27.0398C64.8728 26.3987 64.2097 26.078 63.3937 26.078C62.5923 26.078 61.9218 26.3731 61.3825 26.9632C60.8432 27.5535 60.5736 28.4316 60.5736 29.5974V29.5977Z" fill="white"></path> <path d="M72.8048 33.7182C71.7162 32.618 71.1719 31.2224 71.1719 29.5319C71.1719 27.8413 71.7162 26.446 72.8048 25.3455C73.8934 24.2453 75.2237 23.6951 76.796 23.6951C78.3817 23.6951 79.7221 24.2453 80.8173 25.3455C81.9124 26.446 82.46 27.8413 82.46 29.5319C82.46 31.2224 81.9157 32.618 80.8271 33.7182C79.7385 34.8184 78.4016 35.3689 76.8156 35.3689C75.2299 35.3689 73.8931 34.8187 72.8045 33.7182H72.8048ZM73.7725 29.5319C73.7725 30.5522 74.0647 31.3863 74.6491 32.0348C75.2338 32.6833 75.956 33.0076 76.8159 33.0076C77.6759 33.0076 78.4016 32.6833 78.9929 32.0348C79.5841 31.3863 79.8798 30.5519 79.8798 29.5319C79.8798 28.5264 79.5808 27.6955 78.9828 27.0399C78.3847 26.3839 77.6625 26.0561 76.8156 26.0561C75.969 26.0561 75.2501 26.3839 74.6589 27.0399C74.0677 27.6958 73.7722 28.5264 73.7722 29.5319H73.7725Z" fill="white"></path> <path d="M84.3477 33.7294L85.5939 31.8931C86.483 32.7094 87.5395 33.1174 88.7638 33.1174C89.2592 33.1174 89.6419 33.0188 89.9115 32.8223C90.1812 32.6254 90.316 32.3522 90.316 32.0024C90.316 31.6817 90.1265 31.4049 89.7479 31.1715C89.3687 30.9384 88.9099 30.727 88.3707 30.5376C87.8314 30.3481 87.2886 30.126 86.7419 29.8709C86.1953 29.6158 85.7326 29.2476 85.3537 28.7669C84.9745 28.2861 84.7851 27.7103 84.7851 27.0398C84.7851 25.9904 85.1898 25.1708 85.9987 24.5805C86.8076 23.9902 87.824 23.6953 89.0483 23.6953C90.593 23.6953 91.8464 24.1179 92.8083 24.963L91.7808 26.9086C91.4601 26.6315 91.0337 26.4023 90.5019 26.22C89.97 26.0376 89.4563 25.9468 88.9607 25.9468C87.9262 25.9468 87.4089 26.3037 87.4089 27.0178C87.4089 27.3386 87.5983 27.6153 87.9772 27.8487C88.3561 28.0818 88.8188 28.2929 89.3652 28.4827C89.9118 28.6721 90.4547 28.8871 90.9939 29.1277C91.5332 29.3682 91.9922 29.729 92.3712 30.2097C92.7501 30.6908 92.9395 31.2663 92.9395 31.9368C92.9395 32.928 92.5535 33.7478 91.7811 34.3961C91.0085 35.0446 89.9885 35.3689 88.7205 35.3689C86.9424 35.3689 85.4853 34.8222 84.3483 33.7291L84.3477 33.7294Z" fill="white"></path> <path d="M101.589 31.0187V26.3186H100.146V24.1105H101.655V20.9189H104.366V24.1105H106.901V26.3186H104.366V30.6689C104.366 31.4703 104.595 32.0206 105.054 32.3193C105.513 32.6181 106.02 32.7674 106.574 32.7674C106.763 32.7674 106.931 32.7529 107.076 32.7238V35.1501C106.639 35.1938 106.355 35.2157 106.224 35.2157C105.845 35.2157 105.481 35.1902 105.131 35.1394C104.781 35.0883 104.38 34.9755 103.928 34.8003C103.476 34.6257 103.087 34.3959 102.759 34.1117C102.431 33.8275 102.154 33.4195 101.928 32.8874C101.702 32.3555 101.589 31.7326 101.589 31.0184V31.0187Z" fill="white"></path> <path d="M122.934 35.1068V23.9579H125.6V25.9252L125.557 26.6901H125.6C125.863 25.8741 126.315 25.1891 126.956 24.6355C127.597 24.0817 128.326 23.8047 129.142 23.8047C129.259 23.8047 129.434 23.8192 129.667 23.8483V26.5811C129.521 26.552 129.295 26.5375 128.989 26.5375C127.911 26.5375 127.095 26.9309 126.541 27.7179C125.987 28.5048 125.71 29.4669 125.71 30.6033V35.1068H122.934H122.934Z" fill="white"></path> <path d="M132.617 36.8991C133.025 37.205 133.433 37.3579 133.841 37.3579C134.73 37.3579 135.379 36.8771 135.787 35.915L136.202 34.9312L131.502 23.9573H134.628L136.967 30.3841L137.382 31.8926H137.426C137.557 31.3097 137.681 30.8215 137.798 30.428L139.984 23.9573H143.001L138.038 36.7895C137.674 37.7659 137.131 38.4946 136.41 38.9754C135.688 39.4564 134.89 39.6969 134.016 39.6969C133.622 39.6969 133.233 39.6384 132.846 39.522C132.46 39.4056 132.172 39.2889 131.983 39.1725L131.699 38.9756L132.617 36.8991H132.617Z" fill="white"></path> <path d="M95.2539 35.1065V24.0693H98.0024V35.1065H95.2539Z" fill="white"></path> <path fill-rule="evenodd" clip-rule="evenodd" d="M96.6284 23.0779C97.4741 23.0779 98.1592 22.3926 98.1592 21.5472C98.1592 20.7015 97.4741 20.0161 96.6284 20.0161C95.7827 20.0161 95.0977 20.7015 95.0977 21.5472C95.0977 22.3926 95.783 23.0779 96.6284 23.0779Z" fill="white"></path> <path d="M110.99 33.7182C109.902 32.618 109.357 31.2224 109.357 29.5319C109.357 27.8413 109.902 26.446 110.99 25.3455C112.079 24.2453 113.409 23.6951 114.982 23.6951C116.567 23.6951 117.908 24.2453 119.003 25.3455C120.098 26.446 120.646 27.8413 120.646 29.5319C120.646 31.2224 120.102 32.618 119.013 33.7182C117.924 34.8184 116.587 35.3689 115.001 35.3689C113.416 35.3689 112.079 34.8187 110.99 33.7182ZM111.958 29.5319C111.958 30.5522 112.25 31.3863 112.835 32.0348C113.419 32.6833 114.142 33.0076 115.001 33.0076C115.861 33.0076 116.587 32.6833 117.178 32.0348C117.77 31.3863 118.065 30.5519 118.065 29.5319C118.065 28.5264 117.766 27.6955 117.168 27.0399C116.57 26.3839 115.848 26.0561 115.001 26.0561C114.155 26.0561 113.436 26.3839 112.844 27.0399C112.253 27.6958 111.958 28.5264 111.958 29.5319Z" fill="white"></path> <path d="M24.841 36.8994C25.249 37.2056 25.657 37.3585 26.065 37.3585C26.9541 37.3585 27.6026 36.8777 28.0106 35.9159L28.4257 34.9324L23.7266 23.96H26.8522L29.191 30.3859L29.6061 31.8941H29.6501C29.7813 31.3112 29.9051 30.823 30.0215 30.4295L32.2074 23.96H35.2234L30.2621 36.7901C29.8977 37.7665 29.3549 38.4952 28.6336 38.976C27.9123 39.4567 27.1147 39.6972 26.2402 39.6972C25.8468 39.6972 25.4569 39.639 25.0708 39.5223C24.6848 39.4056 24.3968 39.2892 24.2076 39.1728L23.9234 38.976L24.8413 36.8994H24.841Z" fill="white"></path> <path d="M11.6666 29.5336C11.6666 27.814 12.1949 26.4115 13.2514 25.3259C14.308 24.2406 15.6739 23.6978 17.3496 23.6978C18.8943 23.6978 20.1038 24.1966 20.978 25.195C21.8522 26.1933 22.2893 27.4574 22.2893 28.9876C22.2893 29.2352 22.2605 29.5921 22.202 30.0584H14.5298C14.6171 30.9908 14.9743 31.7159 15.6006 32.2332C16.2271 32.7505 16.9849 33.0091 17.874 33.0091C18.9813 33.0091 20.0453 32.6011 21.065 31.7851L22.158 33.774C21.6042 34.2696 20.923 34.6592 20.1141 34.9434C19.3056 35.2276 18.4928 35.3698 17.6771 35.3698C15.8847 35.3698 14.435 34.8053 13.3274 33.6758C12.2198 32.5465 11.666 31.166 11.666 29.5336H11.6666ZM14.5954 28.1567H19.5137C19.4989 27.428 19.2842 26.8525 18.8688 26.43C18.4533 26.0074 17.9254 25.7963 17.2842 25.7963C16.5846 25.7963 15.9946 26.0113 15.5139 26.4409C15.0328 26.8709 14.7269 27.4428 14.5957 28.1567H14.5954Z" fill="white"></path> <path d="M0 35.1074V19.5884H2.77586V27.8943H4.1528L6.84135 23.96H9.92336L6.40425 28.9434V28.9873L10.3605 35.1074H7.16948L4.21872 30.233H2.77586V35.1074H0Z" fill="white"></path> </svg> 